<svg width="97" height="26" viewBox="0 0 97 26" fill="none" xmlns="http://www.w3.org/2000/svg">
<path d="M55.7279 8.08733C55.6198 8.8365 55.4063 9.52686 55.0899 10.1584C54.7735 10.79 54.3568 11.3371 53.8423 11.7999C53.3279 12.2627 52.7182 12.6258 52.0108 12.8892C51.3034 13.15 50.5137 13.2829 49.6416 13.2829C48.7696 13.2829 47.9953 13.1525 47.3625 12.8892C46.7271 12.6284 46.2204 12.2653 45.8371 11.7999C45.4538 11.3371 45.194 10.79 45.0551 10.1584C44.9162 9.52686 44.9033 8.8365 45.0114 8.08733L46.1072 0.324615H48.9085L47.8307 7.97995C47.7715 8.37371 47.7792 8.73678 47.859 9.06918C47.9362 9.40158 48.0751 9.6905 48.2731 9.93596C48.4712 10.1789 48.7156 10.3706 49.0088 10.5062C49.3021 10.6442 49.6339 10.7107 50.0043 10.7107C50.3748 10.7107 50.7246 10.6417 51.0539 10.5062C51.3831 10.3706 51.679 10.1789 51.9439 9.93596C52.2063 9.69306 52.425 9.40413 52.5999 9.06918C52.7722 8.73678 52.8906 8.37371 52.9497 7.97995L54.0275 0.324615H56.8289L55.733 8.08733H55.7279Z" fill="white"/>
<path d="M70.5325 5.1956C70.6405 4.44643 70.854 3.75607 71.1704 3.12452C71.4868 2.49297 71.9036 1.94579 72.418 1.483C72.9325 1.0202 73.5422 0.657121 74.2496 0.393761C74.957 0.132958 75.7467 0 76.6187 0C77.4908 0 78.265 0.130401 78.8978 0.393761C79.5332 0.654564 80.04 1.01764 80.4233 1.483C80.8065 1.94579 81.0664 2.49297 81.2053 3.12452C81.3442 3.75607 81.357 4.44643 81.249 5.1956L80.1532 12.9583H77.3518L78.4297 5.30299C78.4888 4.90923 78.4811 4.54615 78.4014 4.21376C78.3242 3.88136 78.1853 3.59243 77.9872 3.34697C77.7891 3.10406 77.5448 2.9123 77.2515 2.77678C76.9583 2.63871 76.6264 2.57223 76.256 2.57223C75.8856 2.57223 75.5357 2.64127 75.2065 2.77678C74.8772 2.9123 74.5814 3.10406 74.3164 3.34697C74.0541 3.58987 73.8354 3.8788 73.6605 4.21376C73.4881 4.54615 73.3698 4.90923 73.3106 5.30299L72.2328 12.9583H69.4315L70.5273 5.1956H70.5325Z" fill="white"/>
<path d="M59.1853 0.399057H64.1062C64.7519 0.399057 65.3564 0.460422 65.9197 0.585709C66.4831 0.710997 66.9616 0.918105 67.3551 1.20959C67.7513 1.50108 68.0445 1.89484 68.2349 2.38832C68.4252 2.8818 68.469 3.49801 68.3609 4.23439C68.2297 5.12675 67.8876 5.88614 67.3371 6.51002C66.7866 7.13391 66.0509 7.53022 65.1275 7.69642L67.6047 13.0327H64.2477L62.2901 7.98279H60.9062L60.2065 13.0327H57.4052L59.1827 0.3965L59.1853 0.399057ZM61.2509 5.6279H62.9024C63.1544 5.6279 63.4194 5.61767 63.7024 5.60233C63.9827 5.58443 64.2426 5.53074 64.4844 5.44124C64.7236 5.35175 64.9345 5.21112 65.112 5.02191C65.2921 4.8327 65.4053 4.56423 65.4541 4.21905C65.5004 3.89688 65.4722 3.64119 65.3641 3.45198C65.2561 3.26277 65.1069 3.11703 64.914 3.01475C64.721 2.91504 64.4972 2.846 64.24 2.8102C63.9827 2.77441 63.7281 2.75651 63.476 2.75651H61.6445L61.2483 5.63045L61.2509 5.6279Z" fill="white"/>
<path d="M83.1957 6.64295C83.3397 5.63298 83.6407 4.71506 84.1037 3.89429C84.5642 3.07353 85.1378 2.3755 85.8272 1.79764C86.5166 1.21979 87.3012 0.777445 88.1887 0.468061C89.0736 0.158678 90.0151 0.00526428 91.008 0.00526428C92.0009 0.00526428 92.8936 0.161234 93.6833 0.468061C94.473 0.777445 95.1315 1.21979 95.6589 1.79764C96.1862 2.3755 96.5618 3.07353 96.7907 3.89429C97.0171 4.71506 97.0608 5.63042 96.9168 6.64295C96.7727 7.65548 96.4743 8.57085 96.019 9.39161C95.5637 10.2124 94.99 10.913 94.2955 11.4883C93.601 12.0661 92.8138 12.5085 91.9341 12.8178C91.0543 13.1272 90.118 13.2806 89.125 13.2806C88.1321 13.2806 87.2369 13.1247 86.4395 12.8178C85.642 12.5085 84.9809 12.0661 84.4562 11.4883C83.9288 10.9104 83.5533 10.2124 83.3243 9.39161C83.0979 8.57085 83.0542 7.65548 83.1983 6.64295H83.1957ZM86.1051 6.64295C86.0202 7.23871 86.0382 7.78332 86.1591 8.2768C86.2774 8.77028 86.4858 9.19984 86.779 9.56292C87.0723 9.926 87.4453 10.2073 87.9006 10.4118C88.3559 10.6138 88.8807 10.7161 89.48 10.7161C90.0794 10.7161 90.635 10.6164 91.1495 10.4118C91.664 10.2098 92.1193 9.926 92.5128 9.56292C92.909 9.19984 93.2331 8.77284 93.4904 8.2768C93.7476 7.78332 93.9174 7.23871 94.0023 6.64295C94.0871 6.05998 94.0717 5.51792 93.9585 5.01933C93.8453 4.52073 93.637 4.08862 93.3386 3.72554C93.0402 3.36246 92.662 3.0812 92.2067 2.87665C91.7514 2.67466 91.2241 2.57238 90.6273 2.57238C90.0305 2.57238 89.4723 2.67466 88.9578 2.87665C88.4433 3.07865 87.988 3.36246 87.5945 3.72554C87.1983 4.08862 86.8742 4.52073 86.617 5.01933C86.3597 5.51792 86.1899 6.05998 86.1051 6.64295Z" fill="white"/>
<path d="M43.7483 0.324615H36.5277L36.1855 2.7869H40.6075L39.1721 12.9608H41.9734L43.7483 0.324615Z" fill="white"/>
<path d="M21.1329 22.2304C18.1001 22.2304 15.6455 19.7756 15.6691 16.7568C15.6928 13.7764 18.156 11.3558 21.1544 11.3686C23.1877 11.3772 24.9588 12.4882 25.8938 14.1332C26.156 14.5947 26.8589 14.4494 26.9191 13.9239C26.9793 13.3983 27.0072 12.9005 27.0072 12.3771C27.0072 6.85217 23.6477 2.1071 18.8502 0.0475534C18.3537 -0.166092 17.8809 0.382977 18.1646 0.842316C18.6847 1.68408 18.9792 2.67753 18.9684 3.74149C18.9341 6.73253 16.4408 9.14673 13.4316 9.10827C10.4482 9.06982 8.03875 6.65348 8.03875 3.6774C8.03875 2.63694 8.33322 1.66485 8.84478 0.838043C9.12635 0.380841 8.65133 -0.163956 8.15697 0.0475534C3.35951 2.10496 0 6.85004 0 12.3749C0 12.8984 0.0300916 13.4154 0.0881254 13.9217C0.146159 14.4281 0.853311 14.5904 1.11339 14.1311C2.04838 12.486 3.81948 11.3751 5.85281 11.3665C8.85122 11.3558 11.3144 13.7764 11.3381 16.7568C11.3617 19.7756 8.90496 22.2304 5.87431 22.2304H5.85496C5.32836 22.2304 5.10052 22.8948 5.52396 23.2068C7.75933 24.8369 10.5192 25.8004 13.5025 25.8004C16.4859 25.8004 19.2457 24.8369 21.4811 23.2068C21.9067 22.897 21.6788 22.2304 21.1501 22.2304H21.1307H21.1329Z" fill="white"/>
</svg>
